<mxfile host="app.diagrams.net" modified="2021-11-19T14:38:00.749Z" agent="5.0 (Windows NT 10.0; Win64; x64) AppleWebKit/537.36 (KHTML, like Gecko) Chrome/96.0.4664.45 Safari/537.36" etag="St02EijqL1MNL5XTKlyU" version="15.8.2" type="github">
  <diagram id="octt1NhlOJBhRigbDtqg" name="Page-1">
    <mxGraphModel dx="782" dy="468" grid="1" gridSize="10" guides="1" tooltips="1" connect="1" arrows="1" fold="1" page="1" pageScale="1" pageWidth="827" pageHeight="1169" math="0" shadow="0">
      <root>
        <mxCell id="0" />
        <mxCell id="1" parent="0" />
        <mxCell id="O9FTTu4qDEQCiydmN-cH-2" value="" style="whiteSpace=wrap;html=1;aspect=fixed;" vertex="1" parent="1">
          <mxGeometry x="80" y="120" width="320" height="320" as="geometry" />
        </mxCell>
        <mxCell id="O9FTTu4qDEQCiydmN-cH-4" value="" style="rounded=0;whiteSpace=wrap;html=1;" vertex="1" parent="1">
          <mxGeometry x="80" y="120" width="320" height="40" as="geometry" />
        </mxCell>
        <mxCell id="O9FTTu4qDEQCiydmN-cH-5" value="" style="whiteSpace=wrap;html=1;aspect=fixed;" vertex="1" parent="1">
          <mxGeometry x="480" y="120" width="320" height="320" as="geometry" />
        </mxCell>
        <mxCell id="O9FTTu4qDEQCiydmN-cH-6" value="" style="rounded=0;whiteSpace=wrap;html=1;" vertex="1" parent="1">
          <mxGeometry x="480" y="120" width="320" height="40" as="geometry" />
        </mxCell>
        <mxCell id="O9FTTu4qDEQCiydmN-cH-7" value="Shops" style="text;html=1;strokeColor=none;fillColor=none;align=center;verticalAlign=middle;whiteSpace=wrap;rounded=0;" vertex="1" parent="1">
          <mxGeometry x="210" y="125" width="60" height="30" as="geometry" />
        </mxCell>
        <mxCell id="O9FTTu4qDEQCiydmN-cH-8" value="Sheet Music" style="text;html=1;strokeColor=none;fillColor=none;align=center;verticalAlign=middle;whiteSpace=wrap;rounded=0;" vertex="1" parent="1">
          <mxGeometry x="585" y="125" width="110" height="30" as="geometry" />
        </mxCell>
        <mxCell id="O9FTTu4qDEQCiydmN-cH-10" value="PK Id bigint NOT NULL auto_increment" style="text;html=1;strokeColor=none;fillColor=none;align=center;verticalAlign=middle;whiteSpace=wrap;rounded=0;" vertex="1" parent="1">
          <mxGeometry x="118.75" y="170" width="242.5" height="30" as="geometry" />
        </mxCell>
        <mxCell id="O9FTTu4qDEQCiydmN-cH-11" value="shop_name varchar(255) NOT NULL" style="text;html=1;strokeColor=none;fillColor=none;align=center;verticalAlign=middle;whiteSpace=wrap;rounded=0;" vertex="1" parent="1">
          <mxGeometry x="130" y="200" width="220" height="30" as="geometry" />
        </mxCell>
        <mxCell id="O9FTTu4qDEQCiydmN-cH-12" value="address varchar(255) NOT NULL" style="text;html=1;strokeColor=none;fillColor=none;align=center;verticalAlign=middle;whiteSpace=wrap;rounded=0;" vertex="1" parent="1">
          <mxGeometry x="125" y="230" width="230" height="30" as="geometry" />
        </mxCell>
        <mxCell id="O9FTTu4qDEQCiydmN-cH-13" value="" style="rounded=0;whiteSpace=wrap;html=1;" vertex="1" parent="1">
          <mxGeometry x="80" y="270" width="320" height="170" as="geometry" />
        </mxCell>
        <mxCell id="O9FTTu4qDEQCiydmN-cH-14" value="createShop()" style="text;html=1;strokeColor=none;fillColor=none;align=center;verticalAlign=middle;whiteSpace=wrap;rounded=0;" vertex="1" parent="1">
          <mxGeometry x="210" y="280" width="60" height="30" as="geometry" />
        </mxCell>
        <mxCell id="O9FTTu4qDEQCiydmN-cH-15" value="readOneShop()" style="text;html=1;strokeColor=none;fillColor=none;align=center;verticalAlign=middle;whiteSpace=wrap;rounded=0;" vertex="1" parent="1">
          <mxGeometry x="210" y="310" width="60" height="30" as="geometry" />
        </mxCell>
        <mxCell id="O9FTTu4qDEQCiydmN-cH-16" value="readAllShop()" style="text;html=1;strokeColor=none;fillColor=none;align=center;verticalAlign=middle;whiteSpace=wrap;rounded=0;" vertex="1" parent="1">
          <mxGeometry x="210" y="340" width="60" height="30" as="geometry" />
        </mxCell>
        <mxCell id="O9FTTu4qDEQCiydmN-cH-17" value="updateShop()" style="text;html=1;strokeColor=none;fillColor=none;align=center;verticalAlign=middle;whiteSpace=wrap;rounded=0;" vertex="1" parent="1">
          <mxGeometry x="210" y="370" width="60" height="30" as="geometry" />
        </mxCell>
        <mxCell id="O9FTTu4qDEQCiydmN-cH-18" value="deleteShop()" style="text;html=1;strokeColor=none;fillColor=none;align=center;verticalAlign=middle;whiteSpace=wrap;rounded=0;" vertex="1" parent="1">
          <mxGeometry x="210" y="400" width="60" height="30" as="geometry" />
        </mxCell>
        <mxCell id="O9FTTu4qDEQCiydmN-cH-19" value="" style="rounded=0;whiteSpace=wrap;html=1;" vertex="1" parent="1">
          <mxGeometry x="480" y="350" width="320" height="210" as="geometry" />
        </mxCell>
        <mxCell id="O9FTTu4qDEQCiydmN-cH-20" value="PK sheetMusicId bigint NOT NULL auto_increment" style="text;html=1;strokeColor=none;fillColor=none;align=center;verticalAlign=middle;whiteSpace=wrap;rounded=0;" vertex="1" parent="1">
          <mxGeometry x="480" y="160" width="320" height="30" as="geometry" />
        </mxCell>
        <mxCell id="O9FTTu4qDEQCiydmN-cH-21" value="title varchar(255) NOT NULL" style="text;html=1;strokeColor=none;fillColor=none;align=center;verticalAlign=middle;whiteSpace=wrap;rounded=0;" vertex="1" parent="1">
          <mxGeometry x="480" y="190" width="320" height="30" as="geometry" />
        </mxCell>
        <mxCell id="O9FTTu4qDEQCiydmN-cH-22" value="author varchar(255) NOT NULL" style="text;html=1;strokeColor=none;fillColor=none;align=center;verticalAlign=middle;whiteSpace=wrap;rounded=0;" vertex="1" parent="1">
          <mxGeometry x="480" y="220" width="320" height="30" as="geometry" />
        </mxCell>
        <mxCell id="O9FTTu4qDEQCiydmN-cH-23" value="genre varchar(25) NOT NULL" style="text;html=1;strokeColor=none;fillColor=none;align=center;verticalAlign=middle;whiteSpace=wrap;rounded=0;" vertex="1" parent="1">
          <mxGeometry x="542.5" y="250" width="195" height="30" as="geometry" />
        </mxCell>
        <mxCell id="O9FTTu4qDEQCiydmN-cH-24" value="price double NOT NULL" style="text;html=1;strokeColor=none;fillColor=none;align=center;verticalAlign=middle;whiteSpace=wrap;rounded=0;" vertex="1" parent="1">
          <mxGeometry x="570" y="280" width="140" height="30" as="geometry" />
        </mxCell>
        <mxCell id="O9FTTu4qDEQCiydmN-cH-25" value="shopId bigint FOREIGN KEY NOT NULL" style="text;html=1;strokeColor=none;fillColor=none;align=center;verticalAlign=middle;whiteSpace=wrap;rounded=0;" vertex="1" parent="1">
          <mxGeometry x="480" y="310" width="320" height="30" as="geometry" />
        </mxCell>
        <mxCell id="O9FTTu4qDEQCiydmN-cH-26" value="createSheetMusic()" style="text;html=1;strokeColor=none;fillColor=none;align=center;verticalAlign=middle;whiteSpace=wrap;rounded=0;" vertex="1" parent="1">
          <mxGeometry x="580" y="360" width="120" height="30" as="geometry" />
        </mxCell>
        <mxCell id="O9FTTu4qDEQCiydmN-cH-27" value="readOneSheetMusic()" style="text;html=1;strokeColor=none;fillColor=none;align=center;verticalAlign=middle;whiteSpace=wrap;rounded=0;" vertex="1" parent="1">
          <mxGeometry x="580" y="390" width="120" height="30" as="geometry" />
        </mxCell>
        <mxCell id="O9FTTu4qDEQCiydmN-cH-28" value="readAllSheetMusic()" style="text;html=1;strokeColor=none;fillColor=none;align=center;verticalAlign=middle;whiteSpace=wrap;rounded=0;" vertex="1" parent="1">
          <mxGeometry x="575" y="420" width="130" height="30" as="geometry" />
        </mxCell>
        <mxCell id="O9FTTu4qDEQCiydmN-cH-29" value="updateSheetMusic()" style="text;html=1;strokeColor=none;fillColor=none;align=center;verticalAlign=middle;whiteSpace=wrap;rounded=0;" vertex="1" parent="1">
          <mxGeometry x="575" y="450" width="130" height="30" as="geometry" />
        </mxCell>
        <mxCell id="O9FTTu4qDEQCiydmN-cH-30" value="deleteSheetMusic()" style="text;html=1;strokeColor=none;fillColor=none;align=center;verticalAlign=middle;whiteSpace=wrap;rounded=0;" vertex="1" parent="1">
          <mxGeometry x="575" y="480" width="130" height="30" as="geometry" />
        </mxCell>
        <mxCell id="O9FTTu4qDEQCiydmN-cH-32" value="" style="endArrow=diamond;html=1;rounded=0;endFill=0;" edge="1" parent="1">
          <mxGeometry width="50" height="50" relative="1" as="geometry">
            <mxPoint x="480" y="264" as="sourcePoint" />
            <mxPoint x="400" y="264" as="targetPoint" />
            <Array as="points" />
          </mxGeometry>
        </mxCell>
      </root>
    </mxGraphModel>
  </diagram>
</mxfile>
